{
    "asset" : {
        "generator" : "Khronos Blender glTF 2.0 I/O",
        "version" : "2.0"
    },
    "scene" : 0,
    "scenes" : [
        {
            "name" : "Scene",
            "nodes" : [
                0,
                1
            ]
        }
    ],
    "nodes" : [
        {
            "mesh" : 0,
            "name" : "Icosphere"
        },
        {
            "mesh" : 1,
            "name" : "Icosphere.001",
            "scale" : [
                0.1954151690006256,
                0.1954151690006256,
                0.1954151690006256
            ]
        }
    ],
    "meshes" : [
        {
            "name" : "Icosphere.001",
            "primitives" : [
                {
                    "attributes" : {
                        "POSITION" : 0,
                        "NORMAL" : 1
                    },
                    "indices" : 2
                }
            ]
        },
        {
            "name" : "Icosphere.001",
            "primitives" : [
                {
                    "attributes" : {
                        "POSITION" : 3,
                        "NORMAL" : 4
                    },
                    "indices" : 5
                }
            ]
        }
    ],
    "accessors" : [
        {
            "bufferView" : 0,
            "componentType" : 5126,
            "count" : 6720,
            "max" : [
                1.753169059753418,
                1.7549831867218018,
                1.7525856494903564
            ],
            "min" : [
                -1.753169059753418,
                -1.7549831867218018,
                -1.752585768699646
            ],
            "type" : "VEC3"
        },
        {
            "bufferView" : 1,
            "componentType" : 5126,
            "count" : 6720,
            "type" : "VEC3"
        },
        {
            "bufferView" : 2,
            "componentType" : 5123,
            "count" : 10560,
            "type" : "SCALAR"
        },
        {
            "bufferView" : 3,
            "componentType" : 5126,
            "count" : 6720,
            "max" : [
                1.7731516361236572,
                1.7710652351379395,
                1.7731002569198608
            ],
            "min" : [
                -1.7731516361236572,
                -1.77106511592865,
                -1.7731002569198608
            ],
            "type" : "VEC3"
        },
        {
            "bufferView" : 4,
            "componentType" : 5126,
            "count" : 6720,
            "type" : "VEC3"
        },
        {
            "bufferView" : 5,
            "componentType" : 5123,
            "count" : 10560,
            "type" : "SCALAR"
        }
    ],
    "bufferViews" : [
        {
            "buffer" : 0,
            "byteLength" : 80640,
            "byteOffset" : 0
        },
        {
            "buffer" : 0,
            "byteLength" : 80640,
            "byteOffset" : 80640
        },
        {
            "buffer" : 0,
            "byteLength" : 21120,
            "byteOffset" : 161280
        },
        {
            "buffer" : 0,
            "byteLength" : 80640,
            "byteOffset" : 182400
        },
        {
            "buffer" : 0,
            "byteLength" : 80640,
            "byteOffset" : 263040
        },
        {
            "buffer" : 0,
            "byteLength" : 21120,
            "byteOffset" : 343680
        }
    ],
    "buffers" : [
        {
            "byteLength" : 364800,
            "uri" : "data:application/octet-stream;base64,"
        }
    ]
}
