{
    "asset" : {
        "generator" : "Khronos Blender glTF 2.0 I/O",
        "version" : "2.0"
    },
    "scene" : 0,
    "scenes" : [
        {
            "name" : "Scene",
            "nodes" : [
                0,
                1,
                2
            ]
        }
    ],
    "nodes" : [
        {
            "mesh" : 0,
            "name" : "Sphere.298",
            "scale" : [
                0.3517639935016632,
                0.3517639935016632,
                0.3517639935016632
            ]
        },
        {
            "name" : "Lamp",
            "rotation" : [
                0.16907575726509094,
                0.7558802962303162,
                -0.27217137813568115,
                0.570947527885437
            ],
            "translation" : [
                4.076245307922363,
                5.903861999511719,
                -1.0054539442062378
            ]
        },
        {
            "name" : "Camera",
            "rotation" : [
                0.483536034822464,
                0.33687159419059753,
                -0.20870360732078552,
                0.7804827094078064
            ],
            "translation" : [
                3.716364622116089,
                1.8072175979614258,
                3.0156466960906982
            ]
        }
    ],
    "meshes" : [
        {
            "name" : "Sphere.000",
            "primitives" : [
                {
                    "attributes" : {
                        "POSITION" : 0,
                        "NORMAL" : 1
                    },
                    "indices" : 2
                }
            ]
        }
    ],
    "accessors" : [
        {
            "bufferView" : 0,
            "componentType" : 5126,
            "count" : 43904,
            "max" : [
                2.854104995727539,
                2.779165267944336,
                2.8541059494018555
            ],
            "min" : [
                -2.854104995727539,
                -2.779165506362915,
                -2.8541059494018555
            ],
            "type" : "VEC3"
        },
        {
            "bufferView" : 1,
            "componentType" : 5126,
            "count" : 43904,
            "type" : "VEC3"
        },
        {
            "bufferView" : 2,
            "componentType" : 5123,
            "count" : 258048,
            "type" : "SCALAR"
        }
    ],
    "bufferViews" : [
        {
            "buffer" : 0,
            "byteLength" : 526848,
            "byteOffset" : 0
        },
        {
            "buffer" : 0,
            "byteLength" : 526848,
            "byteOffset" : 526848
        },
        {
            "buffer" : 0,
            "byteLength" : 516096,
            "byteOffset" : 1053696
        }
    ],
    "buffers" : [
        {
            "byteLength" : 1569792,
            "uri" : "data:application/octet-stream;base64,"
        }
    ]
}
