{
    "asset" : {
        "generator" : "Khronos Blender glTF 2.0 I/O",
        "version" : "2.0"
    },
    "scene" : 0,
    "scenes" : [
        {
            "name" : "Scene",
            "nodes" : [
                0,
                1,
                2
            ]
        }
    ],
    "nodes" : [
        {
            "name" : "Point",
            "translation" : [
                -3.886662244796753,
                -2.7651331424713135,
                3.008017063140869
            ]
        },
        {
            "name" : "Camera",
            "rotation" : [
                -0.5687687397003174,
                0.4116572141647339,
                0.5975861549377441,
                0.38720953464508057
            ],
            "translation" : [
                -4.618450164794922,
                -2.3634331226348877,
                0.02272772789001465
            ]
        },
        {
            "mesh" : 0,
            "name" : "Icosphere"
        }
    ],
    "meshes" : [
        {
            "name" : "Icosphere.001",
            "primitives" : [
                {
                    "attributes" : {
                        "POSITION" : 0,
                        "NORMAL" : 1
                    },
                    "indices" : 2
                }
            ]
        }
    ],
    "accessors" : [
        {
            "bufferView" : 0,
            "componentType" : 5126,
            "count" : 6720,
            "max" : [
                1.753169059753418,
                1.7549831867218018,
                1.7525856494903564
            ],
            "min" : [
                -1.753169059753418,
                -1.7549831867218018,
                -1.752585768699646
            ],
            "type" : "VEC3"
        },
        {
            "bufferView" : 1,
            "componentType" : 5126,
            "count" : 6720,
            "type" : "VEC3"
        },
        {
            "bufferView" : 2,
            "componentType" : 5123,
            "count" : 10560,
            "type" : "SCALAR"
        }
    ],
    "bufferViews" : [
        {
            "buffer" : 0,
            "byteLength" : 80640,
            "byteOffset" : 0
        },
        {
            "buffer" : 0,
            "byteLength" : 80640,
            "byteOffset" : 80640
        },
        {
            "buffer" : 0,
            "byteLength" : 21120,
            "byteOffset" : 161280
        }
    ],
    "buffers" : [
        {
            "byteLength" : 182400,
            "uri" : "data:application/octet-stream;base64,"
        }
    ]
}
